<?xml version="1.0" encoding="UTF-8"?>
<svg width="20px" height="20px" viewBox="0 0 20 20" version="1.1" xmlns="http://www.w3.org/2000/svg" xmlns:xlink="http://www.w3.org/1999/xlink">
    <!-- Generator: Sketch 52.6 (67491) - http://www.bohemiancoding.com/sketch -->
    <title>Group</title>
    <desc>Created with Sketch.</desc>
    <g id="Page-1" stroke="none" stroke-width="1" fill="none" fill-rule="evenodd">
        <g id="hidhiHome" fill="#FFFFFF">
            <g id="Group">
                <path d="M10.4390244,0.95 C5.07317073,0.6 0.634146341,5.15 0.975609756,10.65 C1.26829268,15.2 4.82926829,18.85 9.26829268,19.15 C14.6341463,19.5 19.0731707,14.95 18.7317073,9.45 C18.4390244,4.9 14.8292683,1.2 10.4390244,0.95 Z M17.5121951,10 C17.5121951,11.3 17.2195122,12.5 16.6829268,13.6 C16.5853659,13.8 16.2926829,13.8 16.2439024,13.6 L11.0731707,2.7 C10.9756098,2.5 11.1219512,2.3 11.3658537,2.3 C14.8780488,3 17.5121951,6.2 17.5121951,10 Z M11.804878,8 L7.85365854,8 C7.65853659,8 7.56097561,7.8 7.6097561,7.6 L9.6097561,3.45 C9.70731707,3.25 10,3.25 10.097561,3.45 L12.0487805,7.6 C12.1463415,7.8 12,8 11.804878,8 Z M8.63414634,2.7 L3.46341463,13.55 C3.36585366,13.75 3.07317073,13.75 3.02439024,13.55 C2.48780488,12.5 2.19512195,11.3 2.19512195,10.05 C2.19512195,6.25 4.82926829,3.05 8.3902439,2.35 C8.53658537,2.25 8.73170732,2.5 8.63414634,2.7 Z M9.85365854,17.9 C7.90243902,17.9 6.09756098,17.15 4.73170732,15.9 C4.53658537,15.75 4.68292683,15.45 4.87804878,15.45 L8.04878049,15.45 C8.19512195,15.45 8.29268293,15.35 8.29268293,15.2 L8.29268293,14.5 C8.29268293,14.35 8.19512195,14.25 8.04878049,14.25 L4.87804878,14.25 C4.68292683,14.25 4.58536585,14.05 4.63414634,13.85 L6.73170732,9.45 C6.7804878,9.35 6.87804878,9.3 6.97560976,9.3 L12.6341463,9.3 C12.7317073,9.3 12.8292683,9.35 12.8780488,9.45 L14.9756098,13.85 C15.0731707,14.05 14.9268293,14.25 14.7317073,14.25 L11.6585366,14.25 C11.5121951,14.25 11.4146341,14.35 11.4146341,14.5 L11.4146341,15.2 C11.4146341,15.35 11.5121951,15.45 11.6585366,15.45 L14.8292683,15.45 C15.0731707,15.45 15.1707317,15.75 14.9756098,15.9 C13.6097561,17.15 11.804878,17.9 9.85365854,17.9 Z" id="Shape" fill-rule="nonzero"></path>
                <path d="M10.0487805,13.8 C10.0487805,13.8 10.097561,13.75 10.097561,13.7 C10.1463415,13.65 10.195122,13.5 10.2926829,13.4 C10.3414634,13.35 10.3902439,13.25 10.4390244,13.15 C10.4878049,13.05 10.5365854,12.95 10.5853659,12.85 C10.5853659,12.8 10.6341463,12.75 10.6341463,12.7 C10.6341463,12.7 10.6341463,12.65 10.6341463,12.65 C10.6341463,12.65 10.6341463,12.65 10.6341463,12.65 C10.6341463,12.65 10.6341463,12.65 10.6341463,12.65 C10.6341463,12.65 10.6341463,12.6 10.6341463,12.6 C10.6341463,12.6 10.6341463,12.6 10.6341463,12.6 C10.6341463,12.6 10.6341463,12.6 10.6341463,12.6 C10.6341463,12.6 10.6341463,12.6 10.6341463,12.6 C10.6341463,12.6 10.6341463,12.6 10.6341463,12.6 C10.6341463,12.6 10.6341463,12.6 10.6341463,12.6 C10.6341463,12.6 10.6341463,12.6 10.6341463,12.6 C10.6341463,12.6 10.6341463,12.6 10.6341463,12.6 C10.6341463,12.6 10.6341463,12.6 10.6341463,12.6 C10.6341463,12.6 10.6341463,12.55 10.6341463,12.55 C10.6341463,12.5 10.5853659,12.45 10.5853659,12.35 C10.5365854,12.3 10.5365854,12.25 10.4878049,12.2 C10.4390244,12.15 10.3902439,12.1 10.3414634,12.05 C10.2926829,12 10.2439024,11.95 10.1463415,11.95 C10.097561,11.9 10,11.9 9.95121951,11.9 C9.90243902,11.9 9.90243902,11.9 9.85365854,11.9 C9.85365854,11.9 9.80487805,11.9 9.80487805,11.9 C9.80487805,11.9 9.80487805,11.9 9.75609756,11.9 C9.75609756,11.9 9.75609756,11.9 9.70731707,11.9 C9.70731707,11.9 9.70731707,11.9 9.65853659,11.9 C9.65853659,11.9 9.65853659,11.9 9.6097561,11.9 C9.6097561,11.9 9.56097561,11.9 9.56097561,11.9 C9.51219512,11.9 9.51219512,11.9 9.46341463,11.95 C9.31707317,12 9.2195122,12.1 9.12195122,12.25 C9.02439024,12.4 8.97560976,12.55 8.97560976,12.7 C8.97560976,12.7 8.97560976,12.7 8.97560976,12.75 C8.97560976,12.75 8.97560976,12.75 8.97560976,12.75 C8.97560976,12.75 8.97560976,12.75 8.97560976,12.8 C8.97560976,12.8 8.97560976,12.8 8.97560976,12.85 C8.97560976,12.85 8.97560976,12.9 8.97560976,12.9 C8.97560976,12.9 8.97560976,12.9 8.97560976,12.95 L8.97560976,13 C9.02439024,13.1 9.07317073,13.15 9.12195122,13.25 C9.2195122,13.4 9.31707317,13.6 9.46341463,13.75 C9.51219512,13.85 9.6097561,13.9 9.65853659,14 C9.70731707,14.05 9.70731707,14.1 9.75609756,14.1 C9.75609756,14.1 9.80487805,14.15 9.80487805,14.15 L9.85365854,14.2 L9.90243902,14.25 L9.95121951,14.3 L10,14.35 C10,14.35 10.0487805,14.4 10.0487805,14.4 C10.097561,14.45 10.097561,14.5 10.1463415,14.55 C10.195122,14.65 10.2926829,14.75 10.3414634,14.8 C10.4878049,15 10.5853659,15.15 10.6829268,15.35 C10.7317073,15.45 10.7804878,15.55 10.8292683,15.65 L10.8292683,15.7 C10.8292683,15.7 10.8292683,15.75 10.8292683,15.75 C10.8292683,15.8 10.8292683,15.8 10.8292683,15.85 C10.8292683,15.85 10.8292683,15.9 10.8292683,15.9 C10.8292683,15.9 10.8292683,15.95 10.8292683,15.95 C10.8292683,15.95 10.8292683,16 10.8292683,16 C10.8292683,16 10.8292683,16.05 10.8292683,16.05 C10.8292683,16.15 10.7804878,16.3 10.7804878,16.4 C10.7804878,16.45 10.7804878,16.45 10.7317073,16.5 C10.7317073,16.55 10.7317073,16.55 10.6829268,16.6 C10.6341463,16.65 10.6341463,16.7 10.5853659,16.75 C10.4390244,16.95 10.2439024,17.05 10.0487805,17.15 C10,17.15 9.95121951,17.2 9.90243902,17.2 C9.85365854,17.2 9.85365854,17.2 9.80487805,17.2 C9.80487805,17.2 9.75609756,17.2 9.75609756,17.2 C9.75609756,17.2 9.70731707,17.2 9.70731707,17.2 C9.70731707,17.2 9.65853659,17.2 9.65853659,17.2 C9.65853659,17.2 9.6097561,17.2 9.6097561,17.2 C9.56097561,17.2 9.56097561,17.2 9.51219512,17.2 C9.46341463,17.2 9.41463415,17.2 9.36585366,17.2 C9.26829268,17.2 9.17073171,17.15 9.12195122,17.1 C9.02439024,17.05 8.97560976,17 8.87804878,16.95 C8.82926829,16.9 8.73170732,16.8 8.73170732,16.75 C8.68292683,16.7 8.63414634,16.6 8.63414634,16.55 C8.58536585,16.45 8.58536585,16.4 8.58536585,16.3 C8.58536585,16.3 8.58536585,16.25 8.58536585,16.25 C8.58536585,16.25 8.58536585,16.25 8.58536585,16.2 C8.58536585,16.2 8.58536585,16.2 8.58536585,16.15 C8.58536585,16.15 8.58536585,16.15 8.58536585,16.1 C8.58536585,16.1 8.58536585,16.1 8.58536585,16.05 C8.58536585,16.05 8.58536585,16.05 8.58536585,16 C8.58536585,16 8.58536585,16 8.58536585,15.95 C8.58536585,15.95 8.58536585,15.95 8.58536585,15.9 C8.58536585,15.9 8.58536585,15.9 8.58536585,15.85 C8.58536585,15.85 8.58536585,15.8 8.58536585,15.8 C8.58536585,15.8 8.58536585,15.8 8.58536585,15.75 C8.58536585,15.75 8.58536585,15.75 8.58536585,15.75 C8.58536585,15.75 8.58536585,15.7 8.58536585,15.7 C8.58536585,15.65 8.63414634,15.6 8.68292683,15.55 C8.73170732,15.45 8.7804878,15.35 8.82926829,15.25 C8.87804878,15.15 8.92682927,15.1 8.97560976,15.05 C9.07317073,14.9 9.17073171,14.8 9.2195122,14.75 C9.26829268,14.7 9.31707317,14.65 9.31707317,14.65 C9.31707317,14.65 9.26829268,14.7 9.26829268,14.75 C9.2195122,14.8 9.17073171,14.95 9.07317073,15.05 C9.02439024,15.1 8.97560976,15.2 8.92682927,15.3 C8.87804878,15.4 8.82926829,15.5 8.7804878,15.6 C8.7804878,15.65 8.73170732,15.7 8.73170732,15.75 C8.73170732,15.75 8.73170732,15.8 8.73170732,15.8 C8.73170732,15.8 8.73170732,15.8 8.73170732,15.8 C8.73170732,15.8 8.73170732,15.8 8.73170732,15.8 C8.73170732,15.8 8.73170732,15.85 8.73170732,15.85 C8.73170732,15.85 8.73170732,15.85 8.73170732,15.85 C8.73170732,15.85 8.73170732,15.85 8.73170732,15.85 C8.73170732,15.85 8.73170732,15.85 8.73170732,15.85 C8.73170732,15.85 8.73170732,15.85 8.73170732,15.85 C8.73170732,15.85 8.73170732,15.85 8.73170732,15.85 C8.73170732,15.85 8.73170732,15.85 8.73170732,15.85 C8.73170732,15.85 8.73170732,15.85 8.73170732,15.85 C8.73170732,15.85 8.73170732,15.85 8.73170732,15.85 C8.73170732,15.85 8.73170732,15.9 8.73170732,15.9 C8.73170732,15.95 8.7804878,16 8.7804878,16.1 C8.82926829,16.15 8.82926829,16.2 8.87804878,16.25 C8.92682927,16.3 8.97560976,16.35 9.02439024,16.4 C9.07317073,16.45 9.12195122,16.5 9.2195122,16.5 C9.26829268,16.55 9.36585366,16.55 9.41463415,16.55 C9.46341463,16.55 9.46341463,16.55 9.51219512,16.55 C9.51219512,16.55 9.56097561,16.55 9.56097561,16.55 C9.56097561,16.55 9.56097561,16.55 9.6097561,16.55 C9.6097561,16.55 9.6097561,16.55 9.65853659,16.55 C9.65853659,16.55 9.65853659,16.55 9.70731707,16.55 C9.70731707,16.55 9.70731707,16.55 9.75609756,16.55 C9.75609756,16.55 9.80487805,16.55 9.80487805,16.55 C9.85365854,16.55 9.85365854,16.55 9.90243902,16.5 C10.0487805,16.45 10.1463415,16.35 10.2439024,16.2 C10.3414634,16.05 10.3902439,15.9 10.3902439,15.75 C10.3902439,15.75 10.3902439,15.75 10.3902439,15.7 C10.3902439,15.7 10.3902439,15.7 10.3902439,15.7 C10.3902439,15.7 10.3902439,15.7 10.3902439,15.65 C10.3902439,15.65 10.3902439,15.65 10.3902439,15.6 C10.3902439,15.6 10.3902439,15.55 10.3902439,15.55 C10.3902439,15.55 10.3902439,15.55 10.3902439,15.5 L10.3902439,15.45 C10.3414634,15.35 10.2926829,15.3 10.2439024,15.2 C10.1463415,15.05 10.0487805,14.85 9.90243902,14.7 C9.85365854,14.6 9.75609756,14.55 9.70731707,14.45 C9.65853659,14.4 9.65853659,14.35 9.6097561,14.35 C9.6097561,14.35 9.56097561,14.3 9.56097561,14.3 L9.51219512,14.25 L9.46341463,14.2 L9.41463415,14.15 L9.36585366,14.1 C9.36585366,14.1 9.31707317,14.05 9.31707317,14.05 C9.26829268,14 9.26829268,13.95 9.2195122,13.9 C9.17073171,13.8 9.07317073,13.7 9.02439024,13.65 C8.87804878,13.45 8.7804878,13.3 8.68292683,13.1 C8.63414634,13 8.58536585,12.9 8.53658537,12.8 L8.53658537,12.75 C8.53658537,12.75 8.53658537,12.7 8.53658537,12.7 C8.53658537,12.65 8.53658537,12.65 8.53658537,12.6 C8.53658537,12.6 8.53658537,12.55 8.53658537,12.55 C8.53658537,12.55 8.53658537,12.5 8.53658537,12.5 C8.53658537,12.5 8.53658537,12.45 8.53658537,12.45 C8.53658537,12.45 8.53658537,12.4 8.53658537,12.4 C8.53658537,12.3 8.58536585,12.15 8.58536585,12.05 C8.58536585,12 8.58536585,12 8.63414634,11.95 C8.63414634,11.9 8.63414634,11.9 8.68292683,11.85 C8.73170732,11.8 8.73170732,11.75 8.7804878,11.7 C8.92682927,11.5 9.12195122,11.4 9.31707317,11.3 C9.36585366,11.3 9.41463415,11.25 9.46341463,11.25 C9.51219512,11.25 9.51219512,11.25 9.56097561,11.25 C9.56097561,11.25 9.6097561,11.25 9.6097561,11.25 C9.6097561,11.25 9.65853659,11.25 9.65853659,11.25 C9.65853659,11.25 9.70731707,11.25 9.70731707,11.25 C9.70731707,11.25 9.75609756,11.25 9.75609756,11.25 C9.80487805,11.25 9.80487805,11.25 9.85365854,11.25 C9.90243902,11.25 9.95121951,11.25 10,11.25 C10.097561,11.25 10.195122,11.3 10.2439024,11.35 C10.3414634,11.4 10.3902439,11.45 10.4878049,11.5 C10.5365854,11.55 10.6341463,11.65 10.6341463,11.7 C10.6829268,11.75 10.7317073,11.85 10.7317073,11.9 C10.7804878,12 10.7804878,12.05 10.7804878,12.15 C10.7804878,12.15 10.7804878,12.2 10.7804878,12.2 C10.7804878,12.2 10.7804878,12.2 10.7804878,12.25 C10.7804878,12.25 10.7804878,12.25 10.7804878,12.3 C10.7804878,12.3 10.7804878,12.3 10.7804878,12.35 C10.7804878,12.35 10.7804878,12.35 10.7804878,12.4 C10.7804878,12.4 10.7804878,12.4 10.7804878,12.45 C10.7804878,12.45 10.7804878,12.45 10.7804878,12.5 C10.7804878,12.5 10.7804878,12.5 10.7804878,12.55 C10.7804878,12.55 10.7804878,12.55 10.7804878,12.6 C10.7804878,12.6 10.7804878,12.65 10.7804878,12.65 C10.7804878,12.65 10.7804878,12.65 10.7804878,12.7 C10.7804878,12.7 10.7804878,12.7 10.7804878,12.7 C10.7804878,12.7 10.7804878,12.75 10.7804878,12.75 C10.7804878,12.8 10.7317073,12.85 10.6829268,12.9 C10.6341463,13 10.5853659,13.1 10.5365854,13.2 C10.4878049,13.3 10.4390244,13.35 10.3902439,13.4 C10.2926829,13.55 10.195122,13.65 10.1463415,13.7 C10.0487805,13.75 10.0487805,13.8 10.0487805,13.8 Z" id="XMLID_00000169532620680560840830000015539295310734706850_"></path>
                <path d="M9.90243902,20 C4.53658537,20 0.195121951,15.55 0.195121951,10.05 C0.195121951,4.55 4.53658537,0.1 9.90243902,0.1 C15.2682927,0.1 19.6097561,4.55 19.6097561,10.05 C19.6097561,15.55 15.2195122,20 9.90243902,20 Z M9.90243902,0.4 C4.68292683,0.4 0.487804878,4.75 0.487804878,10.05 C0.487804878,15.4 4.73170732,19.7 9.90243902,19.7 C15.1219512,19.7 19.3170732,15.35 19.3170732,10.05 C19.3170732,4.75 15.0731707,0.4 9.90243902,0.4 Z" id="Shape" fill-rule="nonzero"></path>
            </g>
        </g>
    </g>
</svg>