<?xml version="1.0" encoding="UTF-8"?>
<svg width="32px" height="32px" viewBox="0 0 32 32" version="1.1" xmlns="http://www.w3.org/2000/svg" xmlns:xlink="http://www.w3.org/1999/xlink">
    <!-- Generator: Sketch 52.6 (67491) - http://www.bohemiancoding.com/sketch -->
    <title>tnft</title>
    <desc>Created with Sketch.</desc>
    <g id="Page-1" stroke="none" stroke-width="1" fill="none" fill-rule="evenodd">
        <g id="tnft">
            <circle id="Oval" stroke="#FFFFFF" fill-opacity="0" fill="#F0A72C" cx="16" cy="16" r="15.5"></circle>
            <path d="M7,13.0294841 L7.61194539,13.0872422 C8.22389078,12.3363865 8.44641638,10.1993355 12.1180887,10.6614006 C12.0068259,19.8449441 8.11262799,20.7690742 8.33515358,22.6750927 C8.44641638,23.7147391 9.22525597,24.4078367 10.1153584,24.4078367 C12.8969283,24.2923205 12.7856655,20.4225254 13.6201365,10.6036424 L17.1805461,10.6036424 C17.0136519,14.0691305 16.4573379,17.5346187 16.4017065,20.8845905 C16.4573379,23.1371578 17.7924915,24.3500786 19.5170648,24.3500786 C22.3542662,24.4655949 23.3,21.0001068 23.3,19.4983952 L22.6880546,19.4983952 C22.6324232,20.7113161 22.0761092,21.5776881 20.8522184,21.6354462 C17.5699659,21.6932044 19.3501706,15.6286002 19.405802,10.6036424 L23.3,10.6036424 L23.3,8.00452635 C7.1112628,8.00452635 9.16962457,7.65797754 7,13.0294841 Z" id="Path" fill="#FFFFFF"></path>
        </g>
    </g>
</svg>