<?xml version="1.0" encoding="UTF-8"?>
<svg viewBox="0 0 32 32" xmlns="http://www.w3.org/2000/svg">
<circle cx="16" cy="16" r="16" fill="#F26B21"/>
<path d="m24.889 15.583l-2.3517-2.3848-6e-4 -3.3718c0-0.25673-0.2058-0.46482-0.4597-0.46502l-3.3273-0.00224-2.3542-2.3834c-0.1713-0.18041-0.4796-0.18049-0.651-1.9e-4l-2.3544 2.3812-3.3285 6.2e-4c-0.254 4e-5 -0.45989 0.20805-0.46005 0.46478l-0.00234 3.5627c-0.01311 0.402 0.51259 0.6233 0.78579 0.3287l1.2452-1.2615h1.7239l-3.6229 3.6691c-0.08611 0.0872-0.13446 0.2054-0.13446 0.3286l1.5e-4 0.8512-1.3757-1.3951 0.99467-1.0077-0.65137-0.657-1.3188 1.3361c-0.17913 0.1815-0.17921 0.4753-1.5e-4 0.6568l2.3516 2.3847 5.7e-4 3.3719c4e-5 0.2567 0.20585 0.4648 0.45976 0.465l3.3273 0.0023 2.3542 2.3833c0.1713 0.1804 0.4796 0.1805 0.651 2e-4l2.3544-2.3812 3.3285-6e-4c0.254-1e-4 0.4599-0.2081 0.46-0.4648l0.0024-3.5627c0.0135-0.4024-0.514-0.623-0.7858-0.3288l-1.2453 1.2615h-1.7238l3.6229-3.669c0.0861-0.0872 0.1345-0.2054 0.1345-0.3286l-2e-4 -0.8513 1.6997 1.7237 0.6518-0.6567zm-8.8244 8.2717l-3.4095-3.4517v-1.7458l3.6208 3.6669c0.0853 0.0867 0.2049 0.1367 0.3257 0.1365l0.8414-1e-4 -1.3784 1.3942zm3.4147-6.5143l-1.999 2.0245h-2.8261l-1.999-2.0245v-2.8638l1.999-2.0245h2.8261l1.999 2.0245v2.8638zm-3.6209-7.8475c-0.0853-0.08674-0.2048-0.13655-0.3257-0.13651l-0.8414 1.6e-4 1.3785-1.3942 3.4094 3.4517v1.7458l-3.6208-3.667z" fill="#fff"/>
<path d="m23.125 16.751l-0.6507 0.6578 0.6507 0.6577 0.6506-0.6577-0.6506-0.6578z" fill="#fff"/>
</svg>
