<?xml version="1.0" encoding="UTF-8"?>
<svg width="60px" height="32px" viewBox="0 0 60 32" version="1.1" xmlns="http://www.w3.org/2000/svg" xmlns:xlink="http://www.w3.org/1999/xlink">
    <!-- Generator: Sketch 52.6 (67491) - http://www.bohemiancoding.com/sketch -->
    <title>GURU-DAI</title>
    <desc>Created with Sketch.</desc>
    <defs>
        <linearGradient x1="19.6726786%" y1="-1.43660778%" x2="87.5789286%" y2="113.692355%" id="linearGradient-1">
            <stop stop-color="#003CFF" offset="0%"></stop>
            <stop stop-color="#00C8FF" offset="100%"></stop>
        </linearGradient>
    </defs>
    <g id="Page-1" stroke="none" stroke-width="1" fill="none" fill-rule="evenodd">
        <g id="GURU-DAI">
            <path d="M16.5,32 C25.3366,32 32.5,24.8366 32.5,16 C32.5,7.1634 25.3366,0 16.5,0 C7.6634,0 0.5,7.1634 0.5,16 C0.5,24.8366 7.6634,32 16.5,32 Z" id="Path" fill="url(#linearGradient-1)"></path>
            <g id="Group" transform="translate(2.310000, 0.810000)" fill="#FFFFFF">
                <g transform="translate(0.075510, 0.186960)">
                    <path d="M15.024652,1.608728 C7.228842,1.09686 0.779581,7.751144 1.275678,15.794784 C1.700904,22.449068 6.874487,27.78712 13.323748,28.225864 C21.119558,28.737732 27.568819,22.083448 27.072722,14.039808 C26.647496,7.385524 21.473913,2.047472 15.024652,1.608728 Z M25.300947,14.917296 C25.300947,16.81852 24.875721,18.573496 24.09614,20.182224 C23.954398,20.47472 23.529172,20.47472 23.458301,20.182224 L15.945975,4.241192 C15.804233,3.948696 16.016846,3.6562 16.371201,3.6562 C21.473913,4.679936 25.300947,9.359872 25.300947,14.917296 Z M17.00904,11.919212 L11.268489,11.919212 C10.985005,11.919212 10.843263,11.626716 10.914134,11.33422 L13.819845,5.264928 C13.961587,4.972432 14.386813,4.972432 14.528555,5.264928 L17.363395,11.33422 C17.505137,11.626716 17.292524,11.919212 17.00904,11.919212 Z M12.402425,4.168068 L4.890099,20.035976 C4.748357,20.328472 4.323131,20.328472 4.25226,20.035976 C3.472679,18.500372 3.047453,16.745396 3.047453,14.917296 C3.047453,9.359872 6.874487,4.679936 12.04807,3.6562 C12.260683,3.583076 12.544167,3.875572 12.402425,4.168068 Z M14.1742,26.397764 C11.33936,26.397764 8.717133,25.300904 6.732745,23.472804 C6.449261,23.253432 6.661874,22.814688 6.945358,22.814688 L11.551973,22.814688 C11.764586,22.814688 11.906328,22.66844 11.906328,22.449068 L11.906328,21.425332 C11.906328,21.20596 11.764586,21.059712 11.551973,21.059712 L6.874487,21.059712 C6.591003,21.059712 6.449261,20.767216 6.520132,20.47472 L9.567585,14.039808 C9.638456,13.89356 9.780198,13.820436 9.92194,13.820436 L18.142976,13.820436 C18.284718,13.820436 18.42646,13.89356 18.497331,14.039808 L21.544784,20.47472 C21.686526,20.767216 21.473913,21.059712 21.190429,21.059712 L16.725556,21.059712 C16.512943,21.059712 16.371201,21.20596 16.371201,21.425332 L16.371201,22.449068 C16.371201,22.66844 16.512943,22.814688 16.725556,22.814688 L21.332171,22.814688 C21.686526,22.814688 21.828268,23.253432 21.544784,23.472804 C19.631267,25.300904 17.00904,26.397764 14.1742,26.397764 Z" id="Shape" fill-rule="nonzero"></path>
                    <path d="M14.457684,20.47472 C14.457684,20.47472 14.528555,20.401596 14.528555,20.328472 C14.599426,20.255348 14.670297,20.035976 14.812039,19.889728 C14.88291,19.816604 14.953781,19.670356 15.024652,19.524108 L15.237265,19.085364 C15.237265,19.01224 15.308136,18.939116 15.308136,18.865992 L15.308136,18.792868 L15.308136,18.719744 L15.308136,18.64662 C15.308136,18.573496 15.237265,18.500372 15.237265,18.354124 C15.166394,18.281 15.166394,18.207876 15.095523,18.134752 L14.88291,17.91538 C14.812039,17.842256 14.741168,17.769132 14.599426,17.769132 C14.528555,17.696008 14.386813,17.696008 14.315942,17.696008 L14.1742,17.696008 L14.103329,17.696008 L14.032458,17.696008 L13.961587,17.696008 L13.890716,17.696008 L13.819845,17.696008 L13.748974,17.696008 C13.678103,17.696008 13.678103,17.696008 13.607232,17.769132 C13.394619,17.842256 13.252877,17.988504 13.111135,18.207876 C12.969393,18.427248 12.898522,18.64662 12.898522,18.865992 L12.898522,18.939116 L12.898522,19.01224 L12.898522,19.085364 L12.898522,19.158488 L12.898522,19.231612 L12.898522,19.304736 C12.969393,19.450984 13.040264,19.524108 13.111135,19.670356 C13.252877,19.889728 13.394619,20.182224 13.607232,20.401596 C13.678103,20.547844 13.819845,20.620968 13.890716,20.767216 C13.961587,20.84034 13.961587,20.913464 14.032458,20.913464 L14.103329,20.986588 L14.1742,21.059712 L14.245071,21.132836 L14.315942,21.20596 L14.386813,21.279084 L14.457684,21.352208 C14.528555,21.425332 14.528555,21.498456 14.599426,21.57158 C14.670297,21.717828 14.812039,21.864076 14.88291,21.9372 C15.095523,22.229696 15.237265,22.449068 15.379007,22.741564 L15.59162,23.180308 L15.59162,23.253432 L15.59162,23.326556 L15.59162,23.472804 L15.59162,23.545928 L15.59162,23.619052 L15.59162,23.692176 L15.59162,23.7653 C15.59162,23.911548 15.520749,24.13092 15.520749,24.277168 C15.520749,24.350292 15.520749,24.350292 15.449878,24.423416 C15.449878,24.49654 15.449878,24.49654 15.379007,24.569664 C15.308136,24.642788 15.308136,24.715912 15.237265,24.789036 C15.024652,25.081532 14.741168,25.22778 14.457684,25.374028 C14.386813,25.374028 14.315942,25.447152 14.245071,25.447152 L14.103329,25.447152 L14.032458,25.447152 L13.961587,25.447152 L13.890716,25.447152 L13.819845,25.447152 L13.678103,25.447152 L13.46549,25.447152 C13.323748,25.447152 13.182006,25.374028 13.111135,25.300904 C12.969393,25.22778 12.898522,25.154656 12.75678,25.081532 C12.685909,25.008408 12.544167,24.86216 12.544167,24.789036 C12.473296,24.715912 12.402425,24.569664 12.402425,24.49654 C12.331554,24.350292 12.331554,24.277168 12.331554,24.13092 L12.331554,24.057796 L12.331554,23.984672 L12.331554,23.911548 L12.331554,23.838424 L12.331554,23.7653 L12.331554,23.692176 L12.331554,23.619052 L12.331554,23.545928 L12.331554,23.472804 L12.331554,23.39968 L12.331554,23.326556 L12.331554,23.253432 C12.331554,23.180308 12.402425,23.107184 12.473296,23.03406 L12.685909,22.595316 C12.75678,22.449068 12.827651,22.375944 12.898522,22.30282 C13.040264,22.083448 13.182006,21.9372 13.252877,21.864076 L13.394619,21.717828 C13.394619,21.717828 13.323748,21.790952 13.323748,21.864076 C13.252877,21.9372 13.182006,22.156572 13.040264,22.30282 C12.969393,22.375944 12.898522,22.522192 12.827651,22.66844 L12.615038,23.107184 C12.615038,23.180308 12.544167,23.253432 12.544167,23.326556 L12.544167,23.39968 L12.544167,23.472804 L12.544167,23.545928 C12.544167,23.619052 12.615038,23.692176 12.615038,23.838424 C12.685909,23.911548 12.685909,23.984672 12.75678,24.057796 L12.969393,24.277168 C13.040264,24.350292 13.111135,24.423416 13.252877,24.423416 C13.323748,24.49654 13.46549,24.49654 13.536361,24.49654 L13.678103,24.49654 L13.748974,24.49654 L13.819845,24.49654 L13.890716,24.49654 L13.961587,24.49654 L14.032458,24.49654 L14.103329,24.49654 C14.1742,24.49654 14.1742,24.49654 14.245071,24.423416 C14.457684,24.350292 14.599426,24.204044 14.741168,23.984672 C14.88291,23.7653 14.953781,23.545928 14.953781,23.326556 L14.953781,23.253432 L14.953781,23.180308 L14.953781,23.107184 L14.953781,23.03406 L14.953781,22.960936 L14.953781,22.887812 C14.88291,22.741564 14.812039,22.66844 14.741168,22.522192 C14.599426,22.30282 14.457684,22.010324 14.245071,21.790952 C14.1742,21.644704 14.032458,21.57158 13.961587,21.425332 C13.890716,21.352208 13.890716,21.279084 13.819845,21.279084 L13.748974,21.20596 L13.678103,21.132836 L13.607232,21.059712 L13.536361,20.986588 L13.46549,20.913464 L13.394619,20.84034 C13.323748,20.767216 13.323748,20.694092 13.252877,20.620968 C13.182006,20.47472 13.040264,20.328472 12.969393,20.255348 C12.75678,19.962852 12.615038,19.74348 12.473296,19.450984 L12.260683,19.01224 L12.260683,18.939116 L12.260683,18.865992 L12.260683,18.719744 L12.260683,18.64662 L12.260683,18.573496 L12.260683,18.500372 L12.260683,18.427248 C12.260683,18.281 12.331554,18.061628 12.331554,17.91538 C12.331554,17.842256 12.331554,17.842256 12.402425,17.769132 C12.402425,17.696008 12.402425,17.696008 12.473296,17.622884 C12.544167,17.54976 12.544167,17.476636 12.615038,17.403512 C12.827651,17.111016 13.111135,16.964768 13.394619,16.81852 C13.46549,16.81852 13.536361,16.745396 13.607232,16.745396 L13.748974,16.745396 L13.819845,16.745396 L13.890716,16.745396 L13.961587,16.745396 L14.032458,16.745396 L14.1742,16.745396 L14.386813,16.745396 C14.528555,16.745396 14.670297,16.81852 14.741168,16.891644 C14.88291,16.964768 14.953781,17.037892 15.095523,17.111016 C15.166394,17.18414 15.308136,17.330388 15.308136,17.403512 C15.379007,17.476636 15.449878,17.622884 15.449878,17.696008 C15.520749,17.842256 15.520749,17.91538 15.520749,18.061628 L15.520749,18.134752 L15.520749,18.207876 L15.520749,18.281 L15.520749,18.354124 L15.520749,18.427248 L15.520749,18.500372 L15.520749,18.573496 L15.520749,18.64662 L15.520749,18.719744 L15.520749,18.792868 L15.520749,18.865992 L15.520749,18.939116 C15.520749,19.01224 15.449878,19.085364 15.379007,19.158488 L15.166394,19.597232 C15.095523,19.74348 15.024652,19.816604 14.953781,19.889728 C14.812039,20.1091 14.670297,20.255348 14.599426,20.328472 C14.457684,20.401596 14.457684,20.47472 14.457684,20.47472 Z" id="Path"></path>
                    <path d="M14.245071,29.542096 C6.449261,29.542096 0.141742,23.03406 0.141742,14.99042 C0.141742,6.94678 6.449261,0.438744 14.245071,0.438744 C22.040881,0.438744 28.3484,6.94678 28.3484,14.99042 C28.3484,23.03406 21.97001,29.542096 14.245071,29.542096 Z M14.245071,0.804364 C6.661874,0.804364 0.566968,7.166152 0.566968,14.917296 C0.566968,22.741564 6.732745,29.030228 14.245071,29.030228 C21.828268,29.030228 27.923174,22.66844 27.923174,14.917296 C27.923174,7.166152 21.828268,0.804364 14.245071,0.804364 Z" id="Shape" fill-rule="nonzero"></path>
                </g>
            </g>
            <circle id="Oval" fill="#F5AC37" cx="44" cy="16" r="16"></circle>
            <path d="M34.4693,10.67 L43.8338,1.7649 L47.5677,5.3157 L38.2032,14.2208 L34.4693,10.67 Z M34.476,21.311 L49.441,7.08 L53.1749,10.6308 L38.2099,24.8618 L34.476,21.311 Z M55.038,12.4123 L40.073,26.6433 L43.8067,30.1936 L58.7727,15.9626 L55.038,12.4123 Z M28.876,15.9867 L32.6099,12.4359 L36.3438,15.9867 L32.6099,19.5375 L28.876,15.9867 Z" id="Shape" fill="#FFFFFF"></path>
        </g>
    </g>
</svg>