<?xml version="1.0" encoding="UTF-8"?>
<svg fill="none" version="1.1" viewBox="0 0 100 100" xmlns="http://www.w3.org/2000/svg">
<path d="m49.945 93.764c24.079 0 43.6-19.52 43.6-43.6 0-5.0575-0.8611-9.914-2.4448-14.431v-14.216c5.6113 8.0819 8.9 17.898 8.9 28.482 0 27.614-22.386 50-50 50s-50-22.386-50-50c0-10.647 3.3278-20.517 9-28.626v13.775c-1.7171 4.6811-2.6543 9.7385-2.6543 15.015 0 24.079 19.52 43.6 43.6 43.6z" clip-rule="evenodd" fill="url(#a)" fill-rule="evenodd"/>
<path d="m11.1 50c0-21.484 17.416-38.9 38.9-38.9s38.9 17.416 38.9 38.9-17.416 38.9-38.9 38.9-38.9-17.416-38.9-38.9z" fill="#708B96"/>
<defs>
<linearGradient id="a" x1="-83.534" x2="189.06" y1="50" y2="50" gradientUnits="userSpaceOnUse">
<stop stop-color="#708B96" offset="0"/>
<stop stop-color="#F7FBE7" offset="1"/>
</linearGradient>
<linearGradient id="f" x1="30.177" x2="66.607" y1="84.647" y2="84.647" gradientUnits="userSpaceOnUse">
<stop stop-color="#006AFF" offset="0"/>
<stop stop-color="#003CFF" offset="1"/>
</linearGradient>
<linearGradient id="c" x1="45.887" x2="50.59" y1="92.846" y2="92.846" gradientUnits="userSpaceOnUse">
<stop stop-color="#006AFF" offset="0"/>
<stop stop-color="#003CFF" offset="1"/>
</linearGradient>
<linearGradient id="e" x1="28.609" x2="68.365" y1="84.737" y2="84.737" gradientUnits="userSpaceOnUse">
<stop stop-color="#006AFF" offset="0"/>
<stop stop-color="#003CFF" offset="1"/>
</linearGradient>
<linearGradient id="g" x1="30.62" x2="67.05" y1="85.103" y2="85.103" gradientUnits="userSpaceOnUse">
<stop stop-color="#00A4FF" offset="0"/>
<stop stop-color="#00AEFF" offset="1"/>
</linearGradient>
<linearGradient id="b" x1="46.33" x2="51.034" y1="93.302" y2="93.302" gradientUnits="userSpaceOnUse">
<stop stop-color="#00A4FF" offset="0"/>
<stop stop-color="#00AEFF" offset="1"/>
</linearGradient>
<linearGradient id="d" x1="29.052" x2="68.808" y1="85.193" y2="85.193" gradientUnits="userSpaceOnUse">
<stop stop-color="#00A4FF" offset="0"/>
<stop stop-color="#00AEFF" offset="1"/>
</linearGradient>
</defs>
<g transform="matrix(1.7986 0 0 1.7803 -37.801 -101.65)">
<path d="m49.6 66.5c-11-0.7-20.1 8.4-19.4 19.4 0.6 9.1 7.9 16.4 17 17 11 0.7 20.1-8.4 19.4-19.4-0.6-9.1-7.9-16.5-17-17zm14.5 18.1c0 2.6-0.6 5-1.7 7.2-0.2 0.4-0.8 0.4-0.9 0l-10.6-21.8c-0.2-0.4 0.1-0.8 0.6-0.8 7.2 1.4 12.6 7.8 12.6 15.4zm-11.7-4h-8.1c-0.4 0-0.6-0.4-0.5-0.8l4.1-8.3c0.2-0.4 0.8-0.4 1 0l4 8.3c0.2 0.4-0.1 0.8-0.5 0.8zm-6.5-10.6-10.6 21.7c-0.2 0.4-0.8 0.4-0.9 0-1.1-2.1-1.7-4.5-1.7-7 0-7.6 5.4-14 12.7-15.4 0.3-0.2 0.7 0.3 0.5 0.7zm2.5 30.4c-4 0-7.7-1.5-10.5-4-0.4-0.3-0.1-0.9 0.3-0.9h6.5c0.3 0 0.5-0.2 0.5-0.5v-1.4c0-0.3-0.2-0.5-0.5-0.5h-6.6c-0.4 0-0.6-0.4-0.5-0.8l4.3-8.8c0.1-0.2 0.3-0.3 0.5-0.3h11.6c0.2 0 0.4 0.1 0.5 0.3l4.3 8.8c0.2 0.4-0.1 0.8-0.5 0.8h-6.3c-0.3 0-0.5 0.2-0.5 0.5v1.4c0 0.3 0.2 0.5 0.5 0.5h6.5c0.5 0 0.7 0.6 0.3 0.9-2.7 2.5-6.4 4-10.4 4z" fill="url(#f)"/>
<path d="m48.8 92.2s0.1-0.1 0.1-0.2c0.1-0.1 0.2-0.4 0.4-0.6 0.1-0.1 0.2-0.3 0.3-0.5l0.3-0.6c0-0.1 0.1-0.2 0.1-0.3v-0.1-0.1-0.1c0-0.1-0.1-0.2-0.1-0.4-0.1-0.1-0.1-0.2-0.2-0.3l-0.3-0.3c-0.1-0.1-0.2-0.2-0.4-0.2-0.2-0.5-0.3-0.5-0.5-0.5h-0.2-0.1-0.1-0.1-0.1-0.1-0.1c-0.1 0-0.1 0-0.2 0.1-0.3 0.1-0.5 0.3-0.7 0.6s-0.3 0.6-0.3 0.9v0.1 0.1 0.1 0.1 0.1 0.1c0.1 0.2 0.2 0.3 0.3 0.5 0.2 0.3 0.4 0.7 0.7 1 0.1 0.2 0.3 0.3 0.4 0.5 0.1 0.1 0.1 0.2 0.2 0.2l0.1 0.1 0.1 0.1 0.1 0.1 0.1 0.1 0.1 0.1 0.1 0.1c0.1 0.1 0.1 0.2 0.2 0.3 0.1 0.2 0.3 0.4 0.4 0.5 0.3 0.4 0.5 0.7 0.7 1.1l0.3 0.6v0.1 0.1 0.2 0.1 0.1 0.1 0.1c0 0.2-0.1 0.5-0.1 0.7 0 0.1 0 0.1-0.1 0.2 0 0.1 0 0.1-0.1 0.2s-0.1 0.2-0.2 0.3c-0.3 0.4-0.7 0.6-1.1 0.8-0.1 0-0.2 0.1-0.3 0.1h-0.2-0.1-0.1-0.1-0.1-0.2-0.3c-0.2 0-0.4-0.1-0.5-0.2-0.2-0.1-0.3-0.2-0.5-0.3-0.1-0.1-0.3-0.3-0.3-0.4-0.1-0.1-0.2-0.3-0.2-0.4-0.1-0.2-0.1-0.3-0.1-0.5v-0.1-0.1-0.1-0.1-0.1-0.1-0.1-0.1-0.1-0.1-0.1-0.1c0-0.1 0.1-0.2 0.2-0.3l0.3-0.6c0.1-0.2 0.2-0.3 0.3-0.4 0.2-0.3 0.4-0.5 0.5-0.6l0.2-0.2s-0.1 0.1-0.1 0.2c-0.1 0.1-0.2 0.4-0.4 0.6-0.1 0.1-0.2 0.3-0.3 0.5l-0.3 0.6c0 0.1-0.1 0.2-0.1 0.3v0.1 0.1 0.1c0 0.1 0.1 0.2 0.1 0.4 0.1 0.1 0.1 0.2 0.2 0.3l0.3 0.3c0.1 0.1 0.2 0.2 0.4 0.2 0.1 0.1 0.3 0.1 0.4 0.1h0.2 0.1 0.1 0.1 0.1 0.1 0.1c0.1 0 0.1 0 0.2-0.1 0.3-0.1 0.5-0.3 0.7-0.6s0.3-0.6 0.3-0.9v-0.1-0.1-0.1-0.1-0.1-0.1c-0.1-0.2-0.2-0.3-0.3-0.5-0.2-0.3-0.4-0.7-0.7-1-0.1-0.2-0.3-0.3-0.4-0.5-0.1-0.1-0.1-0.2-0.2-0.2l-0.1-0.1 0.3 0.4-0.1-0.1-0.1-0.1-0.1-0.1c-0.1-0.1-0.1-0.2-0.2-0.3-0.1-0.2-0.3-0.4-0.4-0.5-0.3-0.4-0.5-0.7-0.7-1.1l-0.3-0.6v-0.1-0.1-0.2-0.1-0.1-0.1-0.1c0-0.2 0.1-0.5 0.1-0.7 0-0.1 0-0.1 0.1-0.2 0-0.1 0-0.1 0.1-0.2s0.1-0.2 0.2-0.3c0.3-0.4 0.7-0.6 1.1-0.8 0.1 0 0.2-0.1 0.3-0.1h0.2 0.1 0.1 0.1 0.1 0.2 0.3c0.2 0 0.4 0.1 0.5 0.2 0.2 0.1 0.3 0.2 0.5 0.3 0.1 0.1 0.3 0.3 0.3 0.4 0.1 0.1 0.2 0.3 0.2 0.4 0.1 0.2 0.1 0.3 0.1 0.5v0.1 0.1 0.1 0.1 0.1 0.1 0.1 0.1 0.1 0.1 0.1 0.1c0 0.1-0.1 0.2-0.2 0.3l-0.3 0.6c-0.1 0.2-0.2 0.3-0.3 0.4-0.2 0.3-0.4 0.5-0.5 0.6-0.6-0.1-0.6 0-0.6 0z" fill="url(#c)"/>
<path d="m48.5 104.6c-11 0-19.9-8.9-19.9-19.9s8.9-19.9 19.9-19.9 19.9 8.9 19.9 19.9-9 19.9-19.9 19.9zm0-39.2c-10.7 0-19.3 8.7-19.3 19.3 0 10.7 8.7 19.3 19.3 19.3 10.7 0 19.3-8.7 19.3-19.3s-8.6-19.3-19.3-19.3z" fill="url(#e)"/>
<g display="none">
<path d="m50 66.9c-11-0.7-20 8.4-19.3 19.4 0.6 9.1 7.9 16.4 17 17 11 0.7 20.1-8.4 19.4-19.4-0.7-9.1-8-16.4-17.1-17zm14.6 18.2c0 2.6-0.6 5-1.7 7.2-0.2 0.4-0.8 0.4-0.9 0l-10.7-21.9c-0.2-0.4 0.1-0.8 0.6-0.8 7.2 1.5 12.7 7.9 12.7 15.5zm-11.7-4.1h-8.1c-0.4 0-0.6-0.4-0.5-0.8l4.1-8.3c0.2-0.4 0.8-0.4 1 0l4 8.3c0.1 0.4-0.1 0.8-0.5 0.8zm-6.6-10.6-10.6 21.7c-0.2 0.4-0.8 0.4-0.9 0-1.1-2.1-1.7-4.5-1.7-7 0-7.6 5.4-14 12.7-15.4 0.4-0.1 0.7 0.3 0.5 0.7zm2.5 30.4c-4 0-7.7-1.5-10.5-4-0.4-0.3-0.1-0.9 0.3-0.9h6.5c0.3 0 0.5-0.2 0.5-0.5v-1.4c0-0.3-0.2-0.5-0.5-0.5h-6.6c-0.4 0-0.6-0.4-0.5-0.8l4.3-8.8c0.1-0.2 0.3-0.3 0.5-0.3h11.6c0.2 0 0.4 0.1 0.5 0.3l4.3 8.8c0.2 0.4-0.1 0.8-0.5 0.8h-6.3c-0.3 0-0.5 0.2-0.5 0.5v1.4c0 0.3 0.2 0.5 0.5 0.5h6.6c0.5 0 0.7 0.6 0.3 0.9-2.8 2.5-6.4 4-10.5 4z" display="inline" fill="url(#g)"/>
<path d="m49.2 92.7s0.1-0.1 0.1-0.2c0.1-0.1 0.2-0.4 0.4-0.6 0.1-0.1 0.2-0.3 0.3-0.5l0.3-0.6c0-0.1 0.1-0.2 0.1-0.3v-0.1-0.1-0.1c0-0.1-0.1-0.2-0.1-0.4-0.1-0.1-0.1-0.2-0.2-0.3l-0.3-0.3c-0.1-0.1-0.2-0.2-0.4-0.2-0.1-0.1-0.3-0.1-0.4-0.1h-0.2-0.1-0.1-0.1-0.1-0.1-0.1c-0.1 0-0.1 0-0.2 0.1-0.3 0.1-0.5 0.3-0.7 0.6s-0.3 0.6-0.3 0.9v0.1 0.1 0.1 0.1 0.1 0.1c0.1 0.2 0.2 0.3 0.3 0.5 0.2 0.3 0.4 0.7 0.7 1 0.1 0.2 0.3 0.3 0.4 0.5 0.1 0.1 0.1 0.2 0.2 0.2l0.1 0.1 0.3-0.4 0.1 0.1 0.1 0.1 0.1 0.1c0.1 0.1 0.1 0.2 0.2 0.3 0.1 0.2 0.3 0.4 0.4 0.5 0.3 0.4 0.5 0.7 0.7 1.1l0.3 0.6v0.1 0.1 0.2 0.1 0.1 0.1 0.1c0 0.2-0.1 0.5-0.1 0.7 0 0.1 0 0.1-0.1 0.2 0 0.1 0 0.1-0.1 0.2s-0.1 0.2-0.2 0.3c-0.3 0.4-0.7 0.6-1.1 0.8-0.1 0-0.2 0.1-0.3 0.1h-0.2-0.1-0.1-0.1-0.1-0.2-0.3c-0.2 0-0.4-0.1-0.5-0.2-0.2-0.1-0.3-0.2-0.5-0.3-0.1-0.1-0.3-0.3-0.3-0.4-0.1-0.1-0.2-0.3-0.2-0.4-0.1-0.2-0.1-0.3-0.1-0.5v-0.1-0.1-0.1-0.1-0.1-0.1-0.1-0.1-0.1-0.1-0.1-0.1c0-0.1 0.1-0.2 0.2-0.3l0.3-0.6c0.1-0.2 0.2-0.3 0.3-0.4 0.2-0.3 0.4-0.5 0.5-0.6l0.2-0.2s0.3 0.2 0.2 0.4c-0.1 0.1-0.2 0.4-0.4 0.6-0.1 0.1-0.2 0.3-0.3 0.5l-0.3 0.6c0 0.1-0.1 0.2-0.1 0.3v0.1 0.1 0.1c0 0.1 0.1 0.2 0.1 0.4 0.1 0.1 0.1 0.2 0.2 0.3l0.3 0.3c0.1 0.1 0.2 0.2 0.4 0.2 0.1 0.1 0.3 0.1 0.4 0.1h0.2 0.1 0.1 0.1 0.1 0.1 0.1c0.1 0 0.1 0 0.2-0.1 0.3-0.1 0.5-0.3 0.7-0.6s0.3-0.6 0.3-0.9v-0.1-0.1-0.1-0.1-0.1-0.1c-0.1-0.2-0.2-0.3-0.3-0.5-0.2-0.3-0.4-0.7-0.7-1-0.1-0.2-0.3-0.3-0.4-0.5-0.1-0.1-0.1-0.2-0.2-0.2l-0.1-0.1-0.1-0.1-0.1-0.1-0.1-0.1-0.1-0.1-0.1-0.1c-0.1-0.1-0.1-0.2-0.2-0.3-0.1-0.2-0.3-0.4-0.4-0.5-0.3-0.4-0.5-0.7-0.7-1.1l-0.3-0.6v-0.1-0.1-0.2-0.1-0.1-0.1-0.1c0-0.2 0.1-0.5 0.1-0.7 0-0.1 0-0.1 0.1-0.2 0-0.1 0-0.1 0.1-0.2s0.1-0.2 0.2-0.3c0.3-0.4 0.7-0.6 1.1-0.8 0.1 0 0.2-0.1 0.3-0.1h0.2 0.1 0.1 0.1 0.1 0.2 0.3c0.2 0 0.4 0.1 0.5 0.2 0.2 0.1 0.3 0.2 0.5 0.3 0.1 0.1 0.3 0.3 0.3 0.4 0.1 0.1 0.2 0.3 0.2 0.4 0.1 0.2 0.1 0.3 0.1 0.5v0.1 0.1 0.1 0.1 0.1 0.1 0.1 0.1 0.1 0.1 0.1 0.1c0 0.1-0.1 0.2-0.2 0.3l-0.3 0.6c-0.1 0.2-0.2 0.3-0.3 0.4-0.2 0.3-0.4 0.5-0.5 0.6l-0.6 0.6z" display="inline" fill="url(#b)"/>
<g display="inline">
<path d="m48.9 105.1c-11 0-19.9-8.9-19.9-19.9s8.9-19.9 19.9-19.9 19.9 8.9 19.9 19.9-8.9 19.9-19.9 19.9zm0-39.3c-10.7 0-19.3 8.7-19.3 19.3 0 10.7 8.7 19.3 19.3 19.3 10.7 0 19.3-8.7 19.3-19.3 0.1-10.6-8.6-19.3-19.3-19.3z" fill="url(#d)"/>
</g>
</g>
<path d="m49.8 66.8c-11-0.7-20.1 8.4-19.4 19.4 0.6 9.1 7.9 16.4 17 17 11 0.7 20.1-8.4 19.4-19.4-0.6-9.1-8-16.4-17-17zm14.5 18.2c0 2.6-0.6 5-1.7 7.2-0.2 0.4-0.8 0.4-0.9 0l-10.6-21.9c-0.2-0.4 0.1-0.8 0.6-0.8 7.1 1.5 12.6 7.8 12.6 15.5zm-11.7-4.1h-8.1c-0.4 0-0.6-0.4-0.5-0.8l4.1-8.3c0.2-0.4 0.8-0.4 1 0l4 8.3c0.1 0.4-0.1 0.8-0.5 0.8zm-6.5-10.6-10.7 21.7c-0.2 0.4-0.8 0.4-0.9 0-1.1-2.1-1.7-4.5-1.7-7 0-7.6 5.4-14 12.7-15.4 0.4-0.2 0.7 0.3 0.6 0.7zm2.5 30.4c-4 0-7.7-1.5-10.5-4-0.4-0.3-0.1-0.9 0.3-0.9h6.6c0.3 0 0.5-0.2 0.5-0.5v-1.4c0-0.3-0.2-0.5-0.5-0.5h-6.6c-0.4 0-0.6-0.4-0.5-0.8l4.3-8.8c0.1-0.2 0.3-0.3 0.5-0.3h11.6c0.2 0 0.4 0.1 0.5 0.3l4.3 8.8c0.2 0.4-0.1 0.8-0.5 0.8h-6.3c-0.3 0-0.5 0.2-0.5 0.5v1.4c0 0.3 0.2 0.5 0.5 0.5h6.5c0.5 0 0.7 0.6 0.3 0.9-2.8 2.5-6.5 4-10.5 4z" fill="#fff"/>
<path d="m48.9 92.5s0.1-0.1 0.1-0.2c0.1-0.1 0.2-0.4 0.4-0.6 0.1-0.1 0.2-0.3 0.3-0.5l0.3-0.6c0-0.1 0.1-0.2 0.1-0.3v-0.1-0.1-0.1c0-0.1-0.1-0.2-0.1-0.4-0.1-0.1-0.1-0.2-0.2-0.3l-0.3-0.3c-0.1-0.1-0.2-0.2-0.4-0.2-0.1-0.1-0.3-0.1-0.4-0.1h-0.2-0.1-0.1-0.1-0.1-0.1-0.1c-0.1 0-0.1 0-0.2 0.1-0.3 0.1-0.5 0.3-0.7 0.6s-0.3 0.6-0.3 0.9v0.1 0.1 0.1 0.1 0.1 0.1c0.1 0.2 0.2 0.3 0.3 0.5 0.2 0.3 0.4 0.7 0.7 1 0.1 0.2 0.3 0.3 0.4 0.5 0.1 0.1 0.1 0.2 0.2 0.2l0.1 0.1 0.1 0.1 0.1 0.1 0.1 0.1 0.1 0.1 0.1 0.1c0.1 0.1 0.1 0.2 0.2 0.3 0.1 0.2 0.3 0.4 0.4 0.5 0.3 0.4 0.5 0.7 0.7 1.1l0.3 0.6v0.1 0.1 0.2 0.1 0.1 0.1 0.1c0 0.2-0.1 0.5-0.1 0.7 0 0.1 0 0.1-0.1 0.2 0 0.1 0 0.1-0.1 0.2s-0.1 0.2-0.2 0.3c-0.3 0.4-0.7 0.6-1.1 0.8-0.1 0-0.2 0.1-0.3 0.1h-0.2-0.1-0.1-0.1-0.1-0.2-0.3c-0.2 0-0.4-0.1-0.5-0.2-0.2-0.1-0.3-0.2-0.5-0.3-0.1-0.1-0.3-0.3-0.3-0.4-0.1-0.1-0.2-0.3-0.2-0.4-0.1-0.2-0.1-0.3-0.1-0.5v-0.1-0.1-0.1-0.1-0.1-0.1-0.1-0.1-0.1-0.1-0.1-0.1c0-0.1 0.1-0.2 0.2-0.3l0.3-0.6c0.1-0.2 0.2-0.3 0.3-0.4 0.2-0.3 0.4-0.5 0.5-0.6l0.2-0.2s-0.1 0.1-0.1 0.2c-0.1 0.1-0.2 0.4-0.4 0.6-0.1 0.1-0.2 0.3-0.3 0.5l-0.3 0.6c0 0.1-0.1 0.2-0.1 0.3v0.1 0.1 0.1c0 0.1 0.1 0.2 0.1 0.4 0.1 0.1 0.1 0.2 0.2 0.3l0.3 0.3c0.1 0.1 0.2 0.2 0.4 0.2 0.6 0.1 0.8 0.1 0.9 0.1h0.2 0.1 0.1 0.1 0.1 0.1 0.1c0.1 0 0.1 0 0.2-0.1 0.3-0.1 0.5-0.3 0.7-0.6s0.3-0.6 0.3-0.9v-0.1-0.1-0.1-0.1-0.1-0.1c-0.1-0.2-0.2-0.3-0.3-0.5-0.2-0.3-0.4-0.7-0.7-1-0.1-0.2-0.3-0.3-0.4-0.5-0.1-0.1-0.1-0.2-0.2-0.2l-0.1-0.1-0.1-0.1-0.1-0.1-0.2 0.1v-0.1l-0.1-0.1c-0.1-0.1-0.1-0.2-0.2-0.3-0.1-0.2-0.3-0.4-0.4-0.5-0.3-0.4-0.5-0.7-0.7-1.1l-0.3-0.6v-0.1-0.1-0.2-0.1-0.1-0.1-0.1c0-0.2 0.1-0.5 0.1-0.7 0-0.1 0-0.1 0.1-0.2 0-0.1 0-0.1 0.1-0.2s0.1-0.2 0.2-0.3c0.3-0.4 0.7-0.6 1.1-0.8 0.1 0 0.2-0.1 0.3-0.1h0.2 0.1 0.1 0.1 0.1 0.2 0.3c0.2 0 0.4 0.1 0.5 0.2 0.2 0.1 0.3 0.2 0.5 0.3 0.1 0.1 0.3 0.3 0.3 0.4 0.1 0.1 0.2 0.3 0.2 0.4 0.1 0.2 0.1 0.3 0.1 0.5v0.1 0.1 0.1 0.1 0.1 0.1 0.1 0.1 0.1 0.1 0.1 0.1c0 0.1-0.1 0.2-0.2 0.3l-0.3 0.6c-0.1 0.2-0.2 0.3-0.3 0.4-0.2 0.3-0.4 0.5-0.5 0.6h-0.7z" fill="#fff"/>
<path d="m48.7 104.9c-11 0-19.9-8.9-19.9-19.9s8.9-19.9 19.9-19.9 19.9 8.9 19.9 19.9c-0.1 11-9 19.9-19.9 19.9zm0-39.2c-10.7 0-19.3 8.7-19.3 19.3 0 10.7 8.7 19.3 19.3 19.3 10.7 0 19.3-8.7 19.3-19.3s-8.7-19.3-19.3-19.3z" fill="#fff"/>
</g>
</svg>
